<svg width="64" height="64" viewBox="0 0 64 64" fill="none" xmlns="http://www.w3.org/2000/svg">
<g clip-path="url(#clip0_206_25)">
<path d="M1.36873 63.9997C0.199937 63.2817 0.0329664 62.8142 0.467091 61.4617C0.700851 60.7437 0.917913 60.0258 1.16837 59.3245C1.80286 57.5045 3.37239 56.3858 5.30925 56.3691C6.11071 56.3691 6.92887 56.3691 7.79712 56.3691C7.79712 55.3005 7.81382 54.3154 7.79712 53.3135C7.76373 51.2264 8.63198 49.707 10.5855 48.8721C10.8193 48.7719 11.0197 48.5549 11.2033 48.3712C15.7282 43.8463 20.2532 39.3214 24.7781 34.8131C24.9117 34.6796 25.0285 34.546 25.1788 34.4291C25.6129 34.0785 26.1138 34.0785 26.4812 34.4458C26.8485 34.7964 26.8485 35.3141 26.4979 35.7482C26.3643 35.9152 26.214 36.0487 26.0638 36.199C22.0231 40.2397 17.9991 44.2637 13.9584 48.3044C13.7914 48.4714 13.6411 48.6383 13.5242 48.7719C14.1921 49.2561 14.8433 49.7237 15.4444 50.1578C24.4274 41.1747 33.4773 32.1249 42.5104 23.0918C42.0095 22.641 41.4251 22.1066 40.6737 21.4221C40.6403 21.4722 40.5735 21.7059 40.4233 21.8729C36.9169 25.3793 33.4105 28.8857 29.9041 32.3921C29.7371 32.559 29.5868 32.726 29.4032 32.8596C28.9857 33.1434 28.5683 33.0933 28.2177 32.7427C27.8837 32.4088 27.8503 31.9913 28.1008 31.6073C28.2177 31.4236 28.4014 31.2567 28.5683 31.1064C32.1081 27.5666 35.6312 24.0268 39.171 20.5037C39.4548 20.2199 39.6051 20.0028 39.4047 19.552C39.0541 18.7338 39.3046 17.9658 39.8723 17.2979C40.7071 16.3628 41.542 15.4278 42.3434 14.5262C39.889 12.0717 37.4679 9.65061 35.0134 7.19613C32.7927 9.41685 30.5386 11.671 28.3012 13.9418C28.1509 14.092 28.1175 14.3926 28.1008 14.6096C27.9672 16.6467 26.7483 18.2162 24.8449 18.7171C23.0249 19.2014 21.088 18.5001 20.0862 16.9305C19.1679 15.5113 19.0677 13.9919 19.8691 12.4891C20.6539 11.0031 21.9229 10.2517 23.5926 10.1515C23.9098 10.1348 24.2772 9.96785 24.4942 9.75079C26.7817 7.49668 29.0358 5.22588 31.3066 2.95507C33.6275 0.634173 36.5328 0.634172 38.8537 2.97177C41.1412 5.25927 43.412 7.53008 45.6996 9.81758C45.8331 9.95116 45.9667 10.068 46.2339 10.3185C46.3507 10.1348 46.4509 9.95116 46.5845 9.80088C49.2226 6.8455 51.8608 3.90681 54.5156 0.968115C55.6009 -0.234077 56.8866 -0.267471 58.0387 0.884629C59.7585 2.60443 61.495 4.32423 63.2148 6.06073C64.3168 7.17944 64.3001 8.49851 63.1146 9.53373C57.6547 14.3759 52.1947 19.2014 46.7515 24.0435C46.0335 24.678 45.2487 24.8784 44.3304 24.5778C44.1968 24.5277 43.9964 24.6112 43.8462 24.678C43.746 24.7281 43.6625 24.845 43.579 24.9285C34.6294 33.7946 25.7131 42.7276 16.7635 51.6438C16.4128 51.9945 16.2793 52.3117 16.2959 52.8293C16.3627 53.9814 16.3126 55.1502 16.3126 56.3858C17.1475 56.3858 17.9156 56.3858 18.6669 56.3858C20.7875 56.3858 22.3069 57.4878 22.9915 59.5082C23.2085 60.176 23.4256 60.8439 23.6427 61.5285C24.0601 62.8142 23.8764 63.3151 22.7243 64.0164C21.3051 64.0164 19.8858 64.0164 18.4666 64.0164C18.0157 63.7325 17.6818 63.3485 17.8822 62.7808C18.0825 62.2131 18.5668 62.1296 19.1011 62.1296C20.0027 62.1463 20.9043 62.1296 21.8728 62.1296C21.5889 61.2781 21.3719 60.5267 21.088 59.792C20.6873 58.8069 19.9192 58.2726 18.8673 58.2559C14.309 58.2392 9.75068 58.2392 5.19237 58.2559C4.32412 58.2559 3.57275 58.6399 3.18872 59.408C2.77129 60.2428 2.52084 61.1612 2.1702 62.1129C2.52084 62.1129 2.75459 62.1129 2.97166 62.1129C6.66172 62.1129 10.3351 62.1129 14.0251 62.1129C14.5594 62.1129 15.027 62.163 15.2607 62.7307C15.4778 63.3151 15.1105 63.6657 14.7264 63.983C10.285 63.9997 5.82686 63.9997 1.36873 63.9997ZM62.1963 7.71375C62.0293 7.53008 61.9291 7.3798 61.7956 7.24623C60.1259 5.55982 58.4394 3.90681 56.7697 2.2037C56.3857 1.81967 56.1686 1.86976 55.818 2.23709C51.0259 7.61356 46.2172 12.9733 41.4084 18.3164C41.0911 18.6837 41.0911 18.9175 41.4418 19.2514C42.5104 20.2867 43.579 21.3553 44.6142 22.4239C44.9816 22.8079 45.2487 22.8079 45.6495 22.4406C47.9203 20.4035 50.2245 18.3832 52.512 16.3461C55.5842 13.6245 58.6565 10.9196 61.7121 8.19796C61.879 8.06438 62.0126 7.89741 62.1963 7.71375ZM27.5164 12.0383C29.5701 9.98455 31.6573 7.88072 33.7444 5.79358C34.7296 4.80845 35.4141 4.80845 36.3993 5.77688C38.6534 8.03099 40.9075 10.2851 43.1449 12.5392C43.2952 12.7062 43.3787 12.9399 43.5289 13.1737C44.0966 12.5392 44.4974 12.0884 44.8981 11.6376C44.7645 11.4873 44.6643 11.3871 44.5641 11.2869C42.1932 8.91594 39.8222 6.54495 37.4512 4.17396C35.9651 2.68792 34.2119 2.68792 32.7259 4.17396C30.6555 6.2277 28.6017 8.29814 26.548 10.3519C26.4144 10.5022 26.2808 10.6524 26.2307 10.6858C26.6482 11.1367 27.0489 11.5541 27.5164 12.0383ZM14.3758 56.3524C14.3758 54.9999 14.476 53.6642 14.3424 52.3618C14.2422 51.2598 13.1402 50.4917 12.0215 50.5084C10.9195 50.5251 9.85086 51.2932 9.76738 52.3618C9.6505 53.6809 9.73398 54.9999 9.73398 56.3524C11.2868 56.3524 12.8396 56.3524 14.3758 56.3524ZM21.2216 14.4594C21.2049 15.8619 22.3069 16.9806 23.6928 16.9806C25.0786 16.9806 26.214 15.8452 26.1973 14.4761C26.1806 13.1236 25.0953 12.0216 23.7262 12.0049C22.3403 11.9882 21.2216 13.0568 21.2216 14.4594Z" fill="black"/>
<path d="M0 45.0156C0.434125 44.4813 0.951735 44.4145 1.60292 44.5981C2.53796 44.8653 3.50639 45.0323 4.45813 45.266C5.12601 45.433 5.42656 45.8671 5.27629 46.4348C5.14271 46.9858 4.65849 47.2363 4.00731 47.086C2.98878 46.8522 1.97026 46.6519 0.968432 46.3847C0.617793 46.2511 0.317245 45.9673 0 45.7502C0 45.4998 0 45.266 0 45.0156Z" fill="black"/>
<path d="M32.493 63.9995C31.4912 63.365 30.506 62.7305 29.5042 62.096C28.8697 61.6953 28.7028 61.2111 29.0033 60.7102C29.3206 60.1926 29.8549 60.1258 30.5227 60.5265C31.3576 61.0441 32.1758 61.5617 32.9939 62.0793C33.9623 62.6971 33.9957 63.3149 33.1108 63.9995C32.9104 63.9995 32.7101 63.9995 32.493 63.9995Z" fill="black"/>
<path d="M8.04799 43.7123C7.79753 43.9294 7.56377 44.28 7.22983 44.4303C6.7957 44.614 6.32818 44.3802 6.2113 43.9461C5.86067 42.6604 5.56012 41.3747 5.32636 40.0557C5.24287 39.6048 5.61021 39.2041 6.06103 39.2041C6.39497 39.2041 6.94598 39.4212 7.02946 39.6716C7.43019 40.9406 7.69735 42.243 8.04799 43.7123Z" fill="black"/>
<path d="M33.7445 55.7681C33.6444 55.9016 33.5108 56.2189 33.2603 56.3859C32.3086 57.0204 31.3402 57.6214 30.3717 58.2058C29.8374 58.5231 29.3031 58.3895 29.0193 57.922C28.7521 57.4712 28.869 56.9536 29.3699 56.6363C30.3383 56.0018 31.3235 55.384 32.3253 54.7996C32.9765 54.3989 33.7445 54.833 33.7445 55.7681Z" fill="black"/>
</g>
<defs>
<clipPath id="clip0_206_25">
<rect width="64" height="64" fill="white"/>
</clipPath>
</defs>
</svg>
