<svg width="53" height="64" viewBox="0 0 53 64" fill="none" xmlns="http://www.w3.org/2000/svg">
<g clip-path="url(#clip0_206_33)">
<path d="M5.74738 64.0002C4.81234 63.5827 3.77712 63.2989 2.94227 62.7312C1.32265 61.5958 0.521185 59.9428 0.504488 57.9725C0.471094 51.8447 0.487791 45.7335 0.487791 39.6057C0.487791 38.9044 0.821733 38.5037 1.40613 38.5037C2.00723 38.487 2.37456 38.8877 2.37456 39.6224C2.37456 45.5666 2.37456 51.494 2.37456 57.4382C2.37456 60.4103 4.09437 62.1468 7.06645 62.1468C20.1904 62.1468 33.3143 62.1468 46.4382 62.1468C49.3936 62.1468 51.1134 60.4103 51.1134 57.4382C51.1134 40.5073 51.1134 23.5765 51.1134 6.62892C51.1134 3.62344 49.3936 1.90364 46.3881 1.90364C36.3031 1.90364 26.218 1.90364 16.1497 1.90364C15.8992 1.90364 15.6488 1.90364 15.2981 1.90364C15.2981 2.18749 15.2981 2.42125 15.2981 2.67171C15.2814 5.0093 15.3482 7.3469 15.248 9.6678C15.1478 12.0221 13.7787 13.4246 11.4077 13.5248C8.66937 13.6417 5.91435 13.5916 3.15933 13.625C2.90887 13.625 2.67511 13.625 2.37456 13.625C2.37456 13.9423 2.37456 14.1927 2.37456 14.4265C2.37456 21.1721 2.37456 27.9177 2.37456 34.6801C2.37456 34.9138 2.39126 35.1476 2.34117 35.3646C2.20759 35.7988 1.89035 36.0659 1.40613 36.0325C0.921915 36.0158 0.638065 35.732 0.521185 35.2979C0.471094 35.0975 0.487791 34.8804 0.487791 34.6801C0.487791 27.4502 0.521185 20.2204 0.471094 12.9905C0.454397 11.3208 0.972007 10.1019 2.24099 8.96652C4.26134 7.17993 6.09802 5.17627 8.03488 3.2728C8.85304 2.47134 9.73799 1.73667 10.5895 0.985302C11.3409 0.317418 12.2259 0.0168696 13.2277 0.0168696C24.4481 0.0168696 35.6853 0.000172484 46.9057 0.0335667C50.2953 0.0335667 52.9835 2.7385 52.9835 6.12801C53.0002 23.3928 53.0002 40.6576 52.9835 57.9224C52.9835 60.8778 50.913 63.3156 48.0078 63.9C47.9076 63.9167 47.8241 63.9835 47.7239 64.0169C33.7484 64.0002 19.7396 64.0002 5.74738 64.0002ZM2.42465 11.4878C2.44135 11.5546 2.45805 11.6381 2.47475 11.7048C2.7586 11.7048 3.02575 11.7048 3.3096 11.7048C5.86426 11.6881 8.43561 11.7048 10.9903 11.6548C12.6934 11.6214 13.2945 10.9702 13.3947 9.28376C13.3947 9.16688 13.4114 9.03331 13.4114 8.91643C13.4114 6.71241 13.3947 4.50839 13.3947 2.28768C13.3947 2.1708 13.3613 2.05392 13.3446 1.93704C12.6266 1.88695 12.326 1.95373 11.7249 2.47134C10.8734 3.20602 10.0218 3.94069 9.22038 4.72545C7.09984 6.79589 4.97931 8.89973 2.85878 10.9869C2.69181 11.1371 2.57493 11.3208 2.42465 11.4878Z" fill="black"/>
<path d="M23.0293 52.2784C22.278 52.1782 21.5767 52.0781 20.8754 52.0113C20.0906 51.9278 19.356 51.7608 19.0554 50.926C18.7549 50.1078 19.1723 49.49 19.74 48.939C20.7585 47.9539 21.7437 46.9354 22.7455 45.9335C22.9959 45.6831 23.0293 45.4493 23.046 45.082C23.046 43.7629 22.8457 42.4939 22.5785 41.2082C22.4783 40.7407 22.829 40.1563 23.0126 39.622C23.2464 38.9708 23.597 38.3363 23.7306 37.6685C23.9477 36.6833 24.4152 35.9821 25.2834 35.4477C25.8511 35.0971 26.3354 34.5962 26.7695 34.0786C27.3372 33.394 28.0051 32.9599 28.89 32.9432C29.6748 32.9432 30.4095 32.7595 31.094 32.3922C31.8788 31.9747 32.7137 31.9747 33.4984 32.3922C34.1329 32.7261 34.8008 32.9098 35.5188 32.8931C36.554 32.8764 37.3054 33.3773 37.9565 34.1788C38.3573 34.6797 38.8916 35.0971 39.4426 35.4477C40.2607 35.9654 40.6949 36.6666 40.8785 37.6017C40.9954 38.2195 41.2292 38.8373 41.5464 39.3716C42.0974 40.2732 42.1976 41.1582 41.8804 42.1767C41.6967 42.7444 41.7301 43.3956 41.6633 43.9967C41.6132 44.4809 41.6132 44.9985 41.4796 45.466C41.3794 45.7999 41.3961 45.9836 41.6466 46.2174C42.6317 47.1691 43.6002 48.1542 44.5686 49.1227C45.0194 49.5902 45.3534 50.1078 45.1864 50.7924C45.0194 51.4937 44.5185 51.8777 43.8172 51.9779C42.949 52.1115 42.0807 52.2116 41.1624 52.3452C41.0622 53.1133 40.962 53.8646 40.8785 54.616C40.795 55.3507 40.578 56.0353 39.8099 56.3024C39.0419 56.5696 38.4408 56.2356 37.9065 55.7013C36.7043 54.4824 35.4687 53.3136 34.2999 52.0614C33.6487 51.3768 32.8806 51.2766 32.0291 51.3601C31.5282 51.4102 31.0439 51.477 30.5597 51.5938C30.3594 51.6439 30.159 51.7942 30.0087 51.9445C28.7731 53.1634 27.5876 54.4157 26.3187 55.5844C25.968 55.9184 25.4504 56.2022 24.9829 56.2857C24.2148 56.436 23.5302 55.7514 23.4134 54.8498C23.2464 54.0149 23.1462 53.1467 23.0293 52.2784ZM24.7825 44.3473C24.9161 44.5978 25.033 44.9818 25.2834 45.2322C25.9513 45.8834 26.4856 46.5847 26.8363 47.453C26.9531 47.7368 27.3205 48.0207 27.621 48.1208C28.506 48.4047 29.3241 48.7553 30.0254 49.3898C30.2425 49.5902 30.6766 49.6737 30.9772 49.6236C31.8788 49.4733 32.7637 49.3731 33.6821 49.5902C33.9993 49.6737 34.4835 49.5401 34.7507 49.323C35.4854 48.7553 36.2367 48.2878 37.1551 48.0708C37.4389 48.004 37.7562 47.6867 37.8731 47.4029C38.2571 46.5346 38.7079 45.7499 39.4426 45.1154C39.6596 44.9317 39.7765 44.4976 39.7598 44.1803C39.7097 43.262 39.7431 42.377 40.0771 41.4921C40.194 41.2082 40.1105 40.7407 39.9435 40.4569C39.4927 39.6721 39.0252 38.9207 38.9918 37.9857C38.9751 37.5015 38.7246 37.2343 38.3239 37.0173C37.5892 36.6165 36.8879 36.1824 36.4538 35.4143C36.1866 34.9468 35.7859 34.7465 35.2683 34.7632C34.4001 34.7966 33.5986 34.5628 32.8138 34.1788C32.5133 34.0285 32.0291 34.0452 31.7118 34.1788C30.877 34.5461 30.0588 34.7966 29.1405 34.83C28.8065 34.8466 28.3891 35.0804 28.172 35.3476C27.6043 36.0822 26.9698 36.7 26.135 37.1508C25.8678 37.2844 25.6508 37.6685 25.6007 37.969C25.4337 38.8706 25.2 39.7389 24.649 40.507C24.4653 40.7574 24.4486 41.2249 24.5321 41.5422C24.7992 42.4438 25.1499 43.2787 24.7825 44.3473ZM24.4486 47.1524C23.4134 48.1709 22.4282 49.1728 21.4431 50.1579C22.1611 50.2581 22.9458 50.3416 23.7306 50.4584C24.6156 50.592 24.7825 50.7924 24.8994 51.7107C24.9829 52.4621 25.0998 53.2135 25.1833 53.8646C26.2686 52.7793 27.3706 51.694 28.4893 50.5586C27.6711 50.208 26.686 49.9742 26.0014 49.3898C25.2834 48.8054 24.9161 47.8537 24.4486 47.1524ZM35.836 50.8592C36.938 51.9612 37.9565 52.9797 38.9751 54.0149C38.9751 54.0149 39.0085 53.9982 39.0085 53.9648C39.1086 53.2469 39.2088 52.5289 39.309 51.8109C39.4593 50.8091 39.643 50.6421 40.6448 50.5252C41.3794 50.4417 42.0974 50.3416 42.8488 50.2414C41.8637 49.2562 40.9453 48.3379 40.0103 47.3862C39.9435 47.503 39.86 47.6199 39.8099 47.7535C39.3758 49.0559 38.4908 49.7906 37.1551 50.1078C36.6876 50.208 36.2701 50.6087 35.836 50.8592Z" fill="black"/>
<path d="M26.1175 23.1253C21.5925 23.1253 17.0843 23.1253 12.5594 23.1253C12.359 23.1253 12.142 23.142 11.9416 23.1086C11.424 22.9917 11.1402 22.6578 11.1735 22.1235C11.2069 21.6393 11.4908 21.322 12.0084 21.2552C12.1754 21.2385 12.3423 21.2385 12.5093 21.2385C21.5591 21.2385 30.6257 21.2385 39.6755 21.2385C39.8425 21.2385 40.0094 21.2219 40.1764 21.2552C40.6773 21.322 40.9612 21.6059 41.0113 22.1235C41.0447 22.6578 40.7608 22.9917 40.2432 23.1086C40.0428 23.1587 39.8258 23.1253 39.6254 23.1253C35.1172 23.1253 30.6257 23.1253 26.1175 23.1253Z" fill="black"/>
<path d="M26.1175 28.6361C21.626 28.6361 17.1178 28.6361 12.6263 28.6361C12.4426 28.6361 12.259 28.6528 12.0586 28.6361C11.5243 28.586 11.1402 28.2186 11.1235 27.7177C11.1069 27.2001 11.5076 26.7827 12.0753 26.766C12.8267 26.7493 13.578 26.7493 14.3294 26.7493C22.7614 26.7493 31.1935 26.7493 39.6255 26.7493C39.7925 26.7493 39.9594 26.7326 40.1264 26.766C40.644 26.8328 40.9446 27.15 40.978 27.6676C41.0114 28.1685 40.6273 28.5693 40.1097 28.6194C39.9261 28.6361 39.7424 28.6361 39.542 28.6361C35.0839 28.6361 30.5924 28.6361 26.1175 28.6361Z" fill="black"/>
<path d="M26.0173 17.3815C23.5461 17.3815 21.0583 17.3815 18.5871 17.3815C17.986 17.3815 17.5686 17.0476 17.5352 16.5299C17.5018 16.029 17.7523 15.6784 18.2198 15.5448C18.4368 15.478 18.6706 15.4947 18.9044 15.4947C22.2772 15.4947 25.65 15.4947 29.0228 15.4947C30.5422 15.4947 32.0617 15.478 33.5811 15.4947C34.1989 15.4947 34.5996 15.8955 34.5996 16.4465C34.5996 16.9808 34.1822 17.3481 33.5644 17.3815C33.4141 17.3815 33.2806 17.3815 33.1303 17.3815C30.7593 17.3982 28.3883 17.3982 26.0173 17.3815Z" fill="black"/>
<path d="M15.1642 34.1456C14.1791 34.1456 13.2107 34.1456 12.2255 34.1456C11.5409 34.1456 11.1235 33.7782 11.1235 33.2272C11.1068 32.6428 11.5409 32.2588 12.2589 32.2588C14.1958 32.2588 16.1326 32.2588 18.0695 32.2588C18.7541 32.2588 19.1381 32.6261 19.1381 33.2105C19.1381 33.7949 18.7374 34.1289 18.0528 34.1289C17.0844 34.1456 16.1326 34.1289 15.1642 34.1456C15.1642 34.1289 15.1642 34.1289 15.1642 34.1456Z" fill="black"/>
<path d="M32.3293 36.6836C35.1679 36.6836 37.472 38.9711 37.4887 41.7929C37.5054 44.5813 35.2847 46.9356 32.5631 47.0024C31.8451 47.0191 31.3943 46.6852 31.3776 46.1175C31.3609 45.5498 31.7616 45.1824 32.4963 45.1323C34.4499 44.9821 35.8691 43.2623 35.5686 41.4089C35.2513 39.4887 33.448 38.2364 31.578 38.6706C29.6912 39.088 28.6059 41.0415 29.207 42.9283C29.2404 43.0118 29.2571 43.0786 29.2905 43.1621C29.4574 43.7632 29.2404 44.2474 28.7061 44.4144C28.2052 44.5813 27.7543 44.3476 27.5206 43.7966C26.5521 41.6092 27.4371 38.8375 29.5409 37.5018C30.3925 36.9674 31.3442 36.6836 32.3293 36.6836Z" fill="black"/>
</g>
<defs>
<clipPath id="clip0_206_33">
<rect width="52.5291" height="64" fill="white" transform="translate(0.470703)"/>
</clipPath>
</defs>
</svg>
