<svg width="64" height="64" viewBox="0 0 64 64" fill="none" xmlns="http://www.w3.org/2000/svg">
<path d="M50.6252 64H3.12883C0.64748 63.0616 0.00292969 62.1198 0.00292969 59.4097V9.42195C0.00292969 9.18651 0.00292969 8.96442 0.00292969 8.73399C0.00823123 7.74327 0.406198 6.79508 1.10956 6.09735C1.81293 5.39962 2.76428 5.00929 3.75501 5.01196C4.984 4.99526 6.21299 5.01196 7.44197 5.01196C7.62065 5.01196 7.79932 4.99025 7.97131 4.97856C8.18504 1.8727 9.59437 0.149447 11.9755 0.0141917C13.0047 -0.0579763 14.024 0.254417 14.8359 0.890847C16.1718 1.92113 16.5943 3.34882 16.5058 4.95185H27.7219C27.8889 1.94617 29.2481 0.226259 31.6059 0.020871C32.6142 -0.080904 33.6246 0.191915 34.4446 0.787318C35.8773 1.81259 36.3382 3.29205 36.2664 4.96187H47.4893C47.4158 3.68445 47.6312 2.51892 48.4628 1.54375C48.8451 1.07559 49.3246 0.696052 49.8681 0.431386C50.4116 0.166721 51.006 0.0232359 51.6104 0.0108521C52.6211 -0.0286736 53.6105 0.308084 54.3873 0.95597C55.6563 1.98625 56.0571 3.38556 55.9886 5.00528C57.4597 5.00528 58.8707 4.98524 60.2817 5.00528C60.9216 4.99721 61.552 5.16049 62.1076 5.47819C62.6631 5.79588 63.1235 6.25642 63.441 6.81203C63.6848 7.21445 63.8167 7.68534 64.0004 8.1245V50.6214C63.6381 51.0138 63.2874 51.4179 62.91 51.7903C59.2097 55.4973 55.5061 59.2009 51.7991 62.9013C51.4217 63.2887 51.0176 63.6376 50.6252 64ZM61.5007 48.9599V48.2603C61.5007 35.2357 61.5007 22.2172 61.5007 9.20488C61.5085 9.01724 61.5046 8.8293 61.489 8.64215C61.4206 8.04936 60.9881 7.55009 60.397 7.53506C58.9476 7.49164 57.4931 7.51669 55.9786 7.51669C55.9786 7.87737 55.992 8.18462 55.9786 8.4902C55.9319 9.49209 56.0087 10.5107 55.7949 11.4708C55.3441 13.498 53.3269 14.8355 51.2864 14.6118C50.2612 14.5051 49.3101 14.0282 48.6114 13.2705C47.9126 12.5127 47.5143 11.5261 47.4909 10.4956C47.4659 9.52214 47.4909 8.54864 47.4909 7.55009H36.238C36.238 8.55198 36.2614 9.50544 36.238 10.4606C36.238 11.5859 35.791 12.6651 34.9953 13.4608C34.1995 14.2566 33.1203 14.7036 31.995 14.7036C30.8697 14.7036 29.7905 14.2566 28.9947 13.4608C28.199 12.6651 27.752 11.5859 27.752 10.4606C27.7336 9.49042 27.752 8.51858 27.752 7.53339H16.4974C16.4974 8.55532 16.5258 9.55053 16.4974 10.5391C16.4483 11.6402 15.9728 12.6791 15.1714 13.436C14.37 14.1928 13.3057 14.6082 12.2035 14.5943C11.1013 14.5804 10.0477 14.1384 9.26568 13.3616C8.48362 12.5848 8.0344 11.5343 8.01305 10.4322C7.99636 9.4637 8.01305 8.49353 8.01305 7.49832C6.62877 7.49832 5.34134 7.49832 4.0489 7.49832C2.94181 7.51669 2.50766 7.95418 2.50766 9.07463C2.50766 12.1794 2.50766 15.283 2.50766 18.3855V19.0034H52.1497C52.3785 19.0034 52.6106 18.9917 52.8377 19.0134C53.1556 19.0317 53.4543 19.1714 53.6722 19.4036C53.8901 19.6358 54.0105 19.9428 54.0085 20.2612C54.0066 20.5796 53.8825 20.8851 53.6618 21.1147C53.4411 21.3442 53.1407 21.4803 52.8227 21.4947C52.5939 21.5148 52.3635 21.4947 52.1347 21.4947H2.54105V55.4706H19.0055C19.2344 55.4644 19.4634 55.47 19.6918 55.4873C19.9745 55.5095 20.2399 55.6318 20.4404 55.8323C20.6409 56.0328 20.7633 56.2983 20.7855 56.581C20.8268 56.8734 20.7566 57.1706 20.589 57.4138C20.4213 57.6569 20.1684 57.8281 19.8805 57.8935C19.596 57.9515 19.3057 57.9762 19.0155 57.9669C13.7656 57.9669 8.51622 57.9669 3.26743 57.9669H2.50766C2.50766 58.6349 2.50766 59.211 2.50766 59.7904C2.50766 61.1112 2.89506 61.4969 4.22089 61.4969H48.957V60.7706C48.957 58.1673 48.957 55.5624 48.957 52.9592C48.9654 50.4828 50.4966 48.9649 52.983 48.9516C55.3775 48.9516 57.7737 48.9516 60.1632 48.9516L61.5007 48.9599ZM59.5988 51.4947C59.375 51.4814 59.2147 51.4613 59.0544 51.4613C57.0373 51.4613 55.0201 51.4613 53.003 51.4613C51.8759 51.4613 51.4618 51.8771 51.4584 53.0059C51.4584 55.0231 51.4584 57.0407 51.4584 59.059C51.4584 59.226 51.4901 59.393 51.5085 59.5833L59.5988 51.4947ZM14.0027 7.30629C14.0027 6.32778 14.0127 5.35093 14.0027 4.37409C13.986 3.28203 13.2413 2.50723 12.2427 2.50723C11.2442 2.50723 10.5111 3.29539 10.5061 4.39413C10.4961 6.34893 10.4961 8.30373 10.5061 10.2585C10.5061 11.3489 11.2659 12.1304 12.2627 12.1237C13.2596 12.117 13.9877 11.3389 14.001 10.2385C14.011 9.26165 14.0027 8.28314 14.0027 7.30629ZM30.2434 7.28125C30.2434 8.28314 30.2333 9.28503 30.2434 10.2769C30.255 11.3389 30.9731 12.1137 31.9482 12.1254C32.1839 12.1313 32.4182 12.0894 32.6371 12.0021C32.8561 11.9148 33.055 11.784 33.2219 11.6176C33.3888 11.4511 33.5201 11.2526 33.608 11.0339C33.6959 10.8152 33.7386 10.581 33.7333 10.3454C33.76 8.32822 33.76 6.31108 33.7333 4.29394C33.7392 4.05868 33.6974 3.82467 33.6104 3.606C33.5235 3.38733 33.3931 3.18853 33.2273 3.02158C33.0614 2.85464 32.8635 2.723 32.6454 2.6346C32.4273 2.5462 32.1936 2.50288 31.9583 2.50723C30.9831 2.52226 30.2601 3.28871 30.2467 4.34403C30.2267 5.32756 30.2434 6.3044 30.2434 7.28125ZM53.4756 7.30629C53.4756 6.32945 53.4923 5.3526 53.4756 4.37576C53.4488 3.267 52.7108 2.50723 51.7106 2.50723C50.7103 2.50723 49.989 3.28036 49.984 4.39246C49.9723 6.34615 49.9706 8.30151 49.984 10.2552C49.9866 10.5855 50.0606 10.9113 50.201 11.2103C50.3703 11.5366 50.6409 11.7992 50.972 11.9588C51.3032 12.1183 51.6772 12.1663 52.0378 12.0953C52.4416 12.0204 52.806 11.8055 53.0671 11.4885C53.3282 11.1716 53.4693 10.7727 53.4655 10.3621C53.5006 9.35349 53.4756 8.32655 53.4756 7.30629Z" fill="black"/>
<path d="M57.7486 21.4981C57.5009 21.4977 57.259 21.4234 57.0537 21.2848C56.8484 21.1462 56.6891 20.9495 56.5961 20.7199C56.5032 20.4903 56.4807 20.2382 56.5318 19.9958C56.5828 19.7534 56.7049 19.5317 56.8826 19.3591C57.0602 19.1865 57.2853 19.0707 57.529 19.0266C57.7728 18.9825 58.0241 19.0121 58.251 19.1116C58.4778 19.211 58.6699 19.3759 58.8026 19.585C58.9353 19.7942 59.0026 20.0382 58.996 20.2858C58.9836 20.6094 58.8471 20.9158 58.6149 21.1415C58.3826 21.3672 58.0724 21.4949 57.7486 21.4981Z" fill="black"/>
<path d="M25.8 56.7029C25.8009 56.8692 25.7686 57.034 25.705 57.1876C25.6413 57.3412 25.5477 57.4806 25.4295 57.5976C25.3113 57.7145 25.1709 57.8067 25.0166 57.8687C24.8623 57.9307 24.6972 57.9613 24.5309 57.9586C24.2055 57.9497 23.8959 57.8158 23.6665 57.5848C23.4371 57.3538 23.3053 57.0434 23.2986 56.7179C23.2985 56.5517 23.3318 56.3872 23.3966 56.2341C23.4613 56.081 23.5561 55.9425 23.6754 55.8268C23.7947 55.711 23.9361 55.6205 24.0911 55.5604C24.2461 55.5004 24.4115 55.4721 24.5777 55.4772C24.7387 55.4763 24.8983 55.5075 25.0472 55.5688C25.1962 55.6301 25.3314 55.7204 25.4451 55.8344C25.5589 55.9485 25.6488 56.084 25.7097 56.2331C25.7706 56.3821 25.8013 56.5418 25.8 56.7029Z" fill="black"/>
<path d="M12.6881 40.4008H17.7954C18.3042 40.4008 18.6923 40.5051 18.9597 40.7138C19.2271 40.9226 19.3609 41.2063 19.3609 41.5651C19.3609 41.8847 19.2532 42.1554 19.038 42.3771C18.8293 42.5989 18.5096 42.7098 18.0791 42.7098H10.878C10.3888 42.7098 10.0073 42.5761 9.73331 42.3087C9.45935 42.0347 9.32237 41.7151 9.32237 41.3498C9.32237 41.115 9.41043 40.8052 9.58654 40.4203C9.76266 40.029 9.95508 39.7224 10.1638 39.5006C11.0313 38.6005 11.8141 37.8308 12.512 37.1916C13.2099 36.5458 13.7089 36.1218 14.009 35.9196C14.5438 35.5413 14.9874 35.163 15.3396 34.7847C15.6983 34.3998 15.969 34.0085 16.1517 33.6106C16.3408 33.2062 16.4354 32.8116 16.4354 32.4267C16.4354 32.0093 16.3343 31.6375 16.1321 31.3113C15.9364 30.9787 15.6657 30.721 15.32 30.5384C14.9808 30.3557 14.609 30.2644 14.2046 30.2644C13.3502 30.2644 12.6783 30.6395 12.1891 31.3896C12.1239 31.4874 12.013 31.7549 11.8565 32.1919C11.7064 32.6289 11.5336 32.9648 11.3379 33.1997C11.1487 33.4345 10.8683 33.5519 10.4965 33.5519C10.1703 33.5519 9.89964 33.4443 9.68439 33.229C9.46914 33.0138 9.36151 32.7202 9.36151 32.3484C9.36151 31.8984 9.46261 31.4287 9.66482 30.9395C9.86702 30.4503 10.1671 30.0068 10.565 29.6089C10.9694 29.211 11.4781 28.8914 12.0913 28.6501C12.7109 28.4022 13.435 28.2783 14.2633 28.2783C15.2613 28.2783 16.1125 28.4348 16.817 28.7479C17.2736 28.9566 17.6747 29.2436 18.0204 29.6089C18.3661 29.9742 18.6336 30.3981 18.8227 30.8808C19.0184 31.357 19.1163 31.8527 19.1163 32.368C19.1163 33.1768 18.9141 33.9139 18.5096 34.5792C18.1118 35.238 17.7041 35.7566 17.2866 36.1349C16.8692 36.5067 16.168 37.0937 15.183 37.896C14.2046 38.6983 13.5328 39.3212 13.1675 39.7648C13.011 39.9409 12.8512 40.1529 12.6881 40.4008Z" fill="black"/>
<path d="M31.092 35.675C31.092 36.7448 31.0268 37.6645 30.8963 38.4342C30.7659 39.2038 30.5245 39.9018 30.1723 40.5279C29.7287 41.2976 29.1547 41.8912 28.4503 42.3087C27.7458 42.7261 26.9631 42.9348 26.1021 42.9348C25.1106 42.9348 24.2203 42.6544 23.431 42.0934C22.6483 41.5324 22.058 40.7562 21.6601 39.7648C21.4579 39.2234 21.3079 38.6266 21.2101 37.9743C21.1187 37.3155 21.0731 36.6045 21.0731 35.8414C21.0731 34.8564 21.1253 33.9693 21.2296 33.1801C21.334 32.3908 21.4971 31.7125 21.7188 31.145C22.1037 30.2057 22.6614 29.4915 23.3919 29.0023C24.129 28.5066 25.0063 28.2587 26.0238 28.2587C26.6957 28.2587 27.3055 28.3696 27.8535 28.5913C28.4014 28.8066 28.8808 29.1262 29.2917 29.5502C29.7092 29.9676 30.0614 30.4862 30.3484 31.1059C30.8441 32.1821 31.092 33.7052 31.092 35.675ZM28.4111 35.4794C28.4111 34.2857 28.3394 33.3105 28.1959 32.5539C28.0524 31.7907 27.8111 31.2167 27.4719 30.8319C27.1327 30.4405 26.6631 30.2449 26.063 30.2449C25.202 30.2449 24.6019 30.6786 24.2627 31.5461C23.93 32.4137 23.7637 33.7508 23.7637 35.5576C23.7637 36.7839 23.8355 37.7884 23.979 38.5711C24.1225 39.3539 24.3638 39.9474 24.703 40.3518C25.0422 40.7497 25.502 40.9487 26.0825 40.9487C26.6826 40.9487 27.1523 40.7399 27.4914 40.3225C27.8306 39.905 28.0687 39.3082 28.2057 38.532C28.3427 37.7558 28.4111 36.7382 28.4111 35.4794Z" fill="black"/>
<path d="M43.009 35.675C43.009 36.7448 42.9438 37.6645 42.8133 38.4342C42.6829 39.2038 42.4415 39.9018 42.0893 40.5279C41.6458 41.2976 41.0718 41.8912 40.3673 42.3087C39.6629 42.7261 38.8801 42.9348 38.0191 42.9348C37.0277 42.9348 36.1373 42.6544 35.3481 42.0934C34.5653 41.5324 33.975 40.7562 33.5772 39.7648C33.3749 39.2234 33.2249 38.6266 33.1271 37.9743C33.0358 37.3155 32.9901 36.6045 32.9901 35.8414C32.9901 34.8564 33.0423 33.9693 33.1467 33.1801C33.251 32.3908 33.4141 31.7125 33.6359 31.145C34.0207 30.2057 34.5784 29.4915 35.3089 29.0023C36.046 28.5066 36.9233 28.2587 37.9409 28.2587C38.6127 28.2587 39.2226 28.3696 39.7705 28.5913C40.3184 28.8066 40.7978 29.1262 41.2087 29.5502C41.6262 29.9676 41.9784 30.4862 42.2654 31.1059C42.7612 32.1821 43.009 33.7052 43.009 35.675ZM40.3282 35.4794C40.3282 34.2857 40.2564 33.3105 40.1129 32.5539C39.9694 31.7907 39.7281 31.2167 39.3889 30.8319C39.0497 30.4405 38.5801 30.2449 37.98 30.2449C37.119 30.2449 36.5189 30.6786 36.1797 31.5461C35.8471 32.4137 35.6807 33.7508 35.6807 35.5576C35.6807 36.7839 35.7525 37.7884 35.896 38.5711C36.0395 39.3539 36.2808 39.9474 36.62 40.3518C36.9592 40.7497 37.419 40.9487 37.9996 40.9487C38.5997 40.9487 39.0693 40.7399 39.4085 40.3225C39.7477 39.905 39.9857 39.3082 40.1227 38.532C40.2597 37.7558 40.3282 36.7382 40.3282 35.4794Z" fill="black"/>
<path d="M50.9831 41.4672V39.6474H46.0714C45.4518 39.6474 44.9854 39.5071 44.6723 39.2267C44.3658 38.9462 44.2125 38.5646 44.2125 38.0819C44.2125 37.958 44.2353 37.8341 44.281 37.7101C44.3266 37.5797 44.3951 37.446 44.4864 37.309C44.5777 37.1655 44.6723 37.0285 44.7702 36.898C44.868 36.7676 44.9887 36.6078 45.1322 36.4186L50.3177 29.4817C50.6569 29.0251 50.9341 28.6957 51.1494 28.4935C51.3712 28.2848 51.6353 28.1804 51.9419 28.1804C52.9334 28.1804 53.4291 28.7479 53.4291 29.8828V37.4557H53.8498C54.3521 37.4557 54.7532 37.5242 55.0532 37.6612C55.3598 37.7982 55.5131 38.0982 55.5131 38.5613C55.5131 38.9397 55.3892 39.2169 55.1413 39.393C54.8934 39.5626 54.5216 39.6474 54.0259 39.6474H53.4291V41.4672C53.4291 41.9695 53.3182 42.3445 53.0964 42.5924C52.8747 42.8337 52.5779 42.9544 52.2061 42.9544C51.8408 42.9544 51.544 42.8305 51.3157 42.5826C51.0939 42.3282 50.9831 41.9564 50.9831 41.4672ZM46.7759 37.4557H50.9831V31.7712L46.7759 37.4557Z" fill="black"/>
</svg>
