<svg width="65" height="64" viewBox="0 0 65 64" fill="none" xmlns="http://www.w3.org/2000/svg">
<g clip-path="url(#clip0_206_58)">
<path d="M0.700195 21.6171C1.05083 20.9494 1.58514 20.6823 2.3365 20.7324C2.87081 20.7658 3.42181 20.7324 4.0396 20.7324C4.0396 20.4653 4.0396 20.2316 4.0396 19.9812C4.0062 18.3954 3.97281 16.8096 3.95611 15.2405C3.93942 14.2055 4.39024 13.7548 5.42545 13.7381C12.1877 13.5712 17.5308 8.22953 17.6978 1.48566C17.7311 0.450706 18.1653 0 19.2005 0C28.2002 0 37.1999 0 46.1995 0C47.2348 0 47.6856 0.450705 47.719 1.46896C47.8859 8.22953 53.229 13.5712 59.9746 13.7381C61.0432 13.7715 61.4606 14.2055 61.4606 15.2906C61.4606 17.0767 61.4606 18.8628 61.4606 20.7324C61.9448 20.7324 62.5125 20.7324 63.0635 20.7324C64.1488 20.7324 64.7165 21.1831 64.6998 22.001C64.6831 22.8023 64.1321 23.2363 63.0802 23.2363C59.457 23.2363 55.8337 23.2363 52.2105 23.2363C35.6136 23.2363 19.0168 23.2363 2.41999 23.253C1.66862 23.253 1.08423 23.0694 0.716893 22.3683C0.700196 22.1179 0.700195 21.8675 0.700195 21.6171ZM53.7633 20.7157C53.8134 20.6489 53.8802 20.5989 53.9303 20.5321C53.7633 20.3652 53.613 20.1481 53.4127 20.048C52.4275 19.5639 51.3756 19.1967 50.4239 18.6458C46.1161 16.192 43.0939 12.6197 41.3908 7.96244C41.2572 7.5952 41.0903 7.44497 40.6895 7.46166C39.9549 7.49505 39.2369 7.47835 38.5022 7.46166C37.634 7.44497 37.0997 6.96088 37.0997 6.2097C37.0997 5.45853 37.634 4.97444 38.5189 4.95775C39.671 4.94106 40.8064 4.95775 41.9585 4.95775C42.7934 4.95775 43.144 5.24153 43.4111 6.05947C45.3313 12.0856 49.3052 16.0751 55.3328 18.0115C56.1844 18.2786 56.4515 18.6792 56.4181 19.5806C56.4014 19.9478 56.4181 20.3151 56.4181 20.6656C57.253 20.6656 58.0377 20.6656 58.906 20.6656C58.906 19.1633 58.906 17.6943 58.906 16.2254C51.0584 14.9233 46.5001 10.3495 45.1977 2.48722C36.8826 2.48722 28.5508 2.48722 20.2023 2.48722C19.835 6.12624 18.399 9.24778 15.8277 11.8018C13.2563 14.3725 10.134 15.7746 6.57754 16.1419C6.57754 17.6776 6.57754 19.1466 6.57754 20.6489C7.46248 20.6489 8.24724 20.6489 9.0654 20.6489C9.0654 20.3485 9.0821 20.0814 9.0654 19.8143C9.01531 18.5623 9.19897 18.3119 10.3845 17.928C12.4883 17.2603 14.4084 16.2587 16.1282 14.8732C19.0001 12.5529 20.9704 9.63172 22.0223 6.10955C22.2894 5.22483 22.6568 4.97444 23.5584 4.95775C24.7105 4.95775 25.8459 4.94106 26.998 4.95775C27.8161 4.97444 28.3504 5.47522 28.3337 6.2097C28.3337 6.94419 27.7994 7.42827 26.9813 7.44497C26.3134 7.46166 25.6455 7.47835 24.9776 7.44497C24.41 7.39489 24.1762 7.5952 23.9424 8.12937C23.3914 9.43141 22.807 10.7334 22.0557 11.9186C19.6513 15.7413 16.2785 18.4121 12.0375 19.9979C11.5533 20.1815 11.5533 20.1815 11.6701 20.6823C25.6956 20.7157 39.7211 20.7157 53.7633 20.7157Z" fill="black"/>
<path d="M0.700195 41.6152C1.05083 40.9475 1.58514 40.7305 2.3365 40.7305C22.5733 40.7472 42.8267 40.7472 63.0635 40.7472C64.2156 40.7472 64.8668 41.3815 64.6497 42.2829C64.4995 42.9005 64.0487 43.2344 63.2973 43.2511C61.4439 43.2678 59.5905 43.2678 57.7372 43.2511C57.4032 43.2511 57.2196 43.3345 57.086 43.6684C52.7949 54.1014 44.9306 60.478 34.2445 63.6162C33.8438 63.7331 33.4597 63.8666 33.0757 64.0002C32.8252 64.0002 32.5748 64.0002 32.3243 64.0002C32.0906 63.9167 31.8735 63.8165 31.6398 63.7498C27.0314 62.431 22.7069 60.4947 18.8498 57.5902C14.0745 53.9845 10.6683 49.3105 8.38082 43.8186C8.19715 43.3846 7.98009 43.2344 7.52927 43.2511C5.82618 43.2845 4.12308 43.2344 2.41999 43.2678C1.66862 43.2845 1.08423 43.0841 0.73359 42.383C0.700196 42.0993 0.700195 41.8489 0.700195 41.6152ZM48.9879 43.2678C38.0848 43.2678 27.2818 43.2678 16.4121 43.2678C16.4956 43.4514 16.5457 43.5849 16.6291 43.7018C17.1468 44.5364 17.6143 45.3877 18.182 46.189C21.7217 51.2469 26.664 54.3017 32.4579 56.1379C32.6249 56.188 32.8252 56.1713 32.9922 56.1212C37.8844 54.5688 42.2257 52.1149 45.6318 48.2088C46.9509 46.7065 48.0529 45.0873 48.9879 43.2678ZM10.852 43.2344C11.0189 43.6183 11.1525 43.9188 11.2861 44.2193C14.9594 52.0315 20.9537 57.3064 29.0183 60.2109C33.5098 61.8301 31.9236 61.8134 36.1312 60.3111C44.4297 57.3731 50.5575 51.9647 54.2642 43.9021C54.3477 43.7018 54.4312 43.5015 54.5314 43.2344C53.8134 43.2344 53.1956 43.2678 52.5611 43.2177C52.0101 43.1843 51.7596 43.3679 51.4591 43.8687C50.4573 45.5881 49.4722 47.3408 48.2533 48.9099C44.6467 53.5839 39.7879 56.4384 34.2779 58.3413C33.2093 58.7086 32.2408 58.7419 31.1388 58.358C26.4303 56.7388 22.1725 54.3851 18.6829 50.7628C16.6792 48.6762 15.0596 46.3059 13.8073 43.7018C13.6237 43.3345 13.4233 43.1843 13.0059 43.201C12.3547 43.2511 11.6701 43.2344 10.852 43.2344Z" fill="black"/>
<path d="M33.9433 6.26014C33.9433 6.96123 33.359 7.51209 32.6579 7.4954C31.9902 7.46201 31.4561 6.91115 31.4561 6.24344C31.4561 5.54235 32.0403 4.99149 32.7414 5.00818C33.4258 5.02487 33.96 5.57574 33.9433 6.26014Z" fill="black"/>
<path d="M13.125 32.8203L11.3281 32.3906L11.9766 26.625H18.3672V28.4453H13.8281L13.5469 30.9688C13.6979 30.8802 13.9271 30.7865 14.2344 30.6875C14.5417 30.5833 14.8854 30.5312 15.2656 30.5312C15.8177 30.5312 16.3073 30.6172 16.7344 30.7891C17.1615 30.9609 17.5234 31.2109 17.8203 31.5391C18.1224 31.8672 18.3516 32.2682 18.5078 32.7422C18.6641 33.2161 18.7422 33.7526 18.7422 34.3516C18.7422 34.8568 18.6641 35.3385 18.5078 35.7969C18.3516 36.25 18.1146 36.6562 17.7969 37.0156C17.4792 37.3698 17.0807 37.6484 16.6016 37.8516C16.1224 38.0547 15.5547 38.1562 14.8984 38.1562C14.4089 38.1562 13.9349 38.0833 13.4766 37.9375C13.0234 37.7917 12.6146 37.5755 12.25 37.2891C11.8906 37.0026 11.6016 36.6562 11.3828 36.25C11.1693 35.8385 11.0573 35.3698 11.0469 34.8438H13.2812C13.3125 35.1667 13.3958 35.4453 13.5312 35.6797C13.6719 35.9089 13.8568 36.0859 14.0859 36.2109C14.3151 36.3359 14.5833 36.3984 14.8906 36.3984C15.1771 36.3984 15.4219 36.3438 15.625 36.2344C15.8281 36.125 15.9922 35.974 16.1172 35.7812C16.2422 35.5833 16.3333 35.3542 16.3906 35.0938C16.4531 34.8281 16.4844 34.5417 16.4844 34.2344C16.4844 33.9271 16.4479 33.6484 16.375 33.3984C16.3021 33.1484 16.1901 32.9323 16.0391 32.75C15.888 32.5677 15.6953 32.4271 15.4609 32.3281C15.2318 32.2292 14.9635 32.1797 14.6562 32.1797C14.2396 32.1797 13.9167 32.2448 13.6875 32.375C13.4635 32.5052 13.276 32.6536 13.125 32.8203ZM32 26.625V28.4609H26.3438V26.625H32ZM33.6719 26.625V38H31.3281V26.625H33.6719ZM26.0469 26.625H28.3828L28.0938 32.3359C28.0521 33.1901 27.9714 33.9323 27.8516 34.5625C27.737 35.1927 27.5807 35.7292 27.3828 36.1719C27.1849 36.6094 26.9401 36.9635 26.6484 37.2344C26.362 37.5 26.0234 37.6953 25.6328 37.8203C25.2422 37.9401 24.7969 38 24.2969 38H23.7188V36.1719L24.0156 36.1484C24.2708 36.1224 24.4948 36.0547 24.6875 35.9453C24.8802 35.8359 25.0443 35.6719 25.1797 35.4531C25.3203 35.2344 25.4349 34.9557 25.5234 34.6172C25.6172 34.2734 25.6901 33.8542 25.7422 33.3594C25.7995 32.8646 25.8385 32.2865 25.8594 31.625L26.0469 26.625ZM43.3438 36.1719V38H37.2891V36.1719H43.3438ZM38.0547 26.625V38H35.7109V26.625H38.0547ZM42.5547 31.2578V33.0391H37.2891V31.2578H42.5547ZM43.3359 26.625V28.4609H37.2891V26.625H43.3359ZM49.9531 26.625V38H47.6172V26.625H49.9531ZM53.4531 26.625V28.4609H44.1719V26.625H53.4531Z" fill="black"/>
</g>
<defs>
<clipPath id="clip0_206_58">
<rect width="65" height="64" fill="white"/>
</clipPath>
</defs>
</svg>
